<?xml version="1.0" encoding="UTF-8" standalone="no"?>
<!-- Generator: Adobe Illustrator 24.0.2, SVG Export Plug-In . SVG Version: 6.00 Build 0)  -->

<svg
   version="1.1"
   id="Layer_1"
   x="0px"
   y="0px"
   viewBox="0 0 876.5856 325.38047"
   xml:space="preserve"
   sodipodi:docname="Horizontal version 4 (1).svg"
   width="876.58557"
   height="325.38046"
   inkscape:version="1.2.1 (9c6d41e410, 2022-07-14)"
   xmlns:inkscape="http://www.inkscape.org/namespaces/inkscape"
   xmlns:sodipodi="http://sodipodi.sourceforge.net/DTD/sodipodi-0.dtd"
   xmlns="http://www.w3.org/2000/svg"
   xmlns:svg="http://www.w3.org/2000/svg"><defs
   id="defs98" /><sodipodi:namedview
   id="namedview96"
   pagecolor="#505050"
   bordercolor="#eeeeee"
   borderopacity="1"
   inkscape:showpageshadow="0"
   inkscape:pageopacity="0"
   inkscape:pagecheckerboard="0"
   inkscape:deskcolor="#505050"
   showgrid="false"
   inkscape:zoom="0.402"
   inkscape:cx="465.17413"
   inkscape:cy="143.03483"
   inkscape:window-width="1920"
   inkscape:window-height="991"
   inkscape:window-x="-9"
   inkscape:window-y="-9"
   inkscape:window-maximized="1"
   inkscape:current-layer="Layer_1" />
<style
   type="text/css"
   id="style51">
	.st0{fill:#25B75F;}
	.st1{fill:#101010;}
</style>
<g
   id="g55"
   transform="matrix(0.60300308,0,0,0.60300308,-148.03726,-452.25231)">
	<path
   class="st0"
   d="m 245.5,955.7 v 199 l 233.7,134.9 172.3,-99.5 c 38,-21.9 61.3,-62.4 61.3,-106.2 v -199 L 479.1,750 306.8,849.5 c -38,21.9 -61.3,62.4 -61.3,106.2 z m 204.7,78.9 -47.4,-13.6 v -45.3 l 0.8,-0.5 186.2,-107.5 76.3,44.1 -0.6,160 c -0.1,34.9 -18.8,67.1 -49.1,84.6 l -137.4,79.3 -64.1,-37 170.7,-98.5 c 10.1,-5.8 16.4,-16.7 16.4,-28.4 v -121 l -93.9,54.2 47.4,13.6 v 45.3 l -0.8,0.5 -186.2,107.5 -76.3,-44.1 V 968.5 c 0,-35.1 18.7,-67.5 49.1,-85 l 138,-79.7 64.1,37 -170.7,98.5 c -10.1,5.8 -16.4,16.6 -16.4,28.3 v 121.2 z"
   id="path53" />
</g>
<g
   id="g67"
   transform="matrix(0.60300308,0,0,0.60300308,-148.03726,-452.25231)">
	<path
   class="st1"
   d="m 949.8,867.3 h 105.9 v 49.4 H 948.3 c -5.7,0 -9.9,1 -12.5,3 -2.6,2 -3.9,5.2 -3.9,9.5 0,4.3 1.3,7.4 3.9,9.4 2.6,2 6.8,2.9 12.5,2.9 h 44.3 c 22.4,0 40.1,5.6 52.9,16.7 12.8,11.2 19.2,26.4 19.2,45.6 0,19.8 -6.4,35.3 -19.2,46.6 -12.8,11.3 -30.4,16.9 -52.9,16.9 H 885.2 v -49.4 h 109.4 c 6.8,0 11.8,-1.1 14.9,-3.2 3.1,-2.2 4.7,-5.6 4.7,-10.5 0,-4.7 -1.5,-8 -4.6,-10.1 -3,-2 -8.1,-3 -15,-3 h -44.7 c -20.9,0 -37.5,-5.6 -49.8,-16.8 -12.3,-11.2 -18.4,-26.3 -18.4,-45.2 0,-18.9 6.1,-33.9 18.4,-45.2 12.2,-11 28.8,-16.6 49.7,-16.6 z"
   id="path57" />
	<path
   class="st1"
   d="m 1090.7,867.3 h 50.2 v 200.3 h -50.2 z"
   id="path59" />
	<path
   class="st1"
   d="m 1173.7,867.3 h 50.2 v 127.4 c 0,9.1 1.6,15.3 4.8,18.5 3.2,3.2 9.4,4.8 18.5,4.8 h 61.6 v 49.4 h -69.4 c -23.7,0 -40.6,-5.1 -50.7,-15.2 -10.1,-10.1 -15.1,-27 -15.1,-50.6 V 867.3 Z"
   id="path61" />
	<path
   class="st1"
   d="m 1458.3,1032.2 c -4.7,12.8 -11.5,22.5 -20.4,29 -8.9,6.5 -19.9,9.8 -33,9.8 -12.9,0 -24,-3.4 -33.3,-10.1 -9.3,-6.7 -15.9,-16.3 -20,-28.7 L 1297,867.3 h 53.1 l 45.1,144.5 c 1,3.4 2.3,5.9 3.8,7.4 1.5,1.5 3.5,2.3 5.9,2.3 2.5,0 4.6,-0.8 6.3,-2.3 1.6,-1.5 3,-4 4,-7.4 l 45.1,-144.5 h 53.1 z"
   id="path63" />
	<path
   class="st1"
   d="m 1644.2,902.8 55,164.7 h -53.1 L 1601,923 c -1,-3.3 -2.3,-5.7 -4,-7.3 -1.6,-1.6 -3.7,-2.4 -6.3,-2.4 -2.4,0 -4.4,0.8 -5.9,2.3 -1.5,1.5 -2.8,4 -3.8,7.4 l -45.1,144.5 h -53.1 l 54.6,-164.7 c 4.1,-12.6 10.7,-22.2 20,-28.9 9.3,-6.7 20.3,-10.1 33.3,-10.1 13.1,0 24.1,3.3 33,9.8 8.9,6.6 15.8,16.3 20.5,29.2 z"
   id="path65" />
</g>
<g
   id="g93"
   transform="matrix(0.60300308,0,0,0.60300308,-148.03726,-452.25231)">
	<path
   class="st1"
   d="m 923.2,1120.3 v 4.7 h -15.7 v 52 h -5.7 v -52 H 886 v -4.7 z"
   id="path69" />
	<path
   class="st1"
   d="m 958.2,1124.9 v 21.2 h 21.5 v 4.7 h -21.5 v 21.5 h 23.9 v 4.7 h -29.6 v -56.8 h 29.6 v 4.7 z"
   id="path71" />
	<path
   class="st1"
   d="m 1014.7,1133.7 c 2.4,-4.4 5.8,-7.8 10,-10.3 4.2,-2.5 8.9,-3.7 14.1,-3.7 6.3,0 11.8,1.5 16.3,4.5 4.5,3 7.8,7.2 9.9,12.7 h -6.7 c -1.6,-3.8 -4.1,-6.8 -7.4,-9 -3.3,-2.2 -7.3,-3.2 -12.1,-3.2 -4.2,0 -7.9,1 -11.2,2.9 -3.3,1.9 -5.9,4.7 -7.8,8.4 -1.9,3.7 -2.8,7.9 -2.8,12.7 0,4.8 0.9,9 2.8,12.7 1.9,3.6 4.5,6.4 7.8,8.4 3.3,1.9 7.1,2.9 11.2,2.9 4.7,0 8.7,-1.1 12.1,-3.2 3.3,-2.1 5.8,-5.1 7.4,-8.9 h 6.7 c -2.1,5.4 -5.4,9.6 -9.9,12.6 -4.5,3 -10,4.5 -16.2,4.5 -5.2,0 -9.9,-1.2 -14.1,-3.7 -4.2,-2.5 -7.5,-5.9 -10,-10.3 -2.4,-4.4 -3.7,-9.4 -3.7,-14.9 -0.1,-5.7 1.2,-10.7 3.6,-15.1 z"
   id="path73" />
	<path
   class="st1"
   d="m 1138.6,1120.3 v 56.7 h -5.7 v -26.5 h -30.8 v 26.5 h -5.7 v -56.7 h 5.7 v 25.5 h 30.8 v -25.5 z"
   id="path75" />
	<path
   class="st1"
   d="m 1214.7,1177 h -5.7 l -31.4,-47.7 v 47.7 h -5.7 v -56.7 h 5.7 l 31.4,47.6 v -47.6 h 5.7 z"
   id="path77" />
	<path
   class="st1"
   d="m 1259,1173.9 c -4.3,-2.5 -7.6,-5.9 -10.1,-10.3 -2.5,-4.4 -3.7,-9.4 -3.7,-15 0,-5.6 1.2,-10.6 3.7,-15 2.5,-4.4 5.8,-7.8 10.1,-10.3 4.3,-2.5 9,-3.7 14.3,-3.7 5.3,0 10.1,1.2 14.4,3.7 4.3,2.5 7.6,5.9 10.1,10.3 2.4,4.4 3.7,9.4 3.7,15 0,5.6 -1.2,10.6 -3.7,15 -2.4,4.4 -5.8,7.8 -10.1,10.3 -4.3,2.5 -9.1,3.7 -14.4,3.7 -5.2,0 -10,-1.2 -14.3,-3.7 z m 25.7,-4.2 c 3.4,-1.9 6,-4.7 8,-8.4 1.9,-3.7 2.9,-7.9 2.9,-12.7 0,-4.8 -1,-9 -2.9,-12.7 -1.9,-3.6 -4.6,-6.4 -8,-8.4 -3.4,-1.9 -7.1,-2.9 -11.4,-2.9 -4.2,0 -8,1 -11.4,2.9 -3.4,1.9 -6,4.7 -8,8.4 -1.9,3.6 -2.9,7.8 -2.9,12.7 0,4.8 1,9 2.9,12.7 1.9,3.7 4.6,6.5 8,8.4 3.4,1.9 7.1,2.9 11.4,2.9 4.2,0.1 8,-0.9 11.4,-2.9 z"
   id="path79" />
	<path
   class="st1"
   d="m 1337.8,1172.4 h 20.4 v 4.6 h -26.1 v -56.7 h 5.7 z"
   id="path81" />
	<path
   class="st1"
   d="m 1397.7,1173.9 c -4.3,-2.5 -7.6,-5.9 -10.1,-10.3 -2.5,-4.4 -3.7,-9.4 -3.7,-15 0,-5.6 1.2,-10.6 3.7,-15 2.5,-4.4 5.8,-7.8 10.1,-10.3 4.3,-2.5 9,-3.7 14.3,-3.7 5.3,0 10.1,1.2 14.4,3.7 4.3,2.5 7.6,5.9 10.1,10.3 2.4,4.4 3.7,9.4 3.7,15 0,5.6 -1.2,10.6 -3.7,15 -2.4,4.4 -5.8,7.8 -10.1,10.3 -4.3,2.5 -9.1,3.7 -14.4,3.7 -5.2,0 -10,-1.2 -14.3,-3.7 z m 25.7,-4.2 c 3.4,-1.9 6,-4.7 8,-8.4 1.9,-3.7 2.9,-7.9 2.9,-12.7 0,-4.8 -1,-9 -2.9,-12.7 -1.9,-3.6 -4.6,-6.4 -8,-8.4 -3.4,-1.9 -7.1,-2.9 -11.4,-2.9 -4.2,0 -8,1 -11.4,2.9 -3.4,1.9 -6,4.7 -8,8.4 -1.9,3.6 -2.9,7.8 -2.9,12.7 0,4.8 1,9 2.9,12.7 1.9,3.7 4.6,6.5 8,8.4 3.4,1.9 7.1,2.9 11.4,2.9 4.2,0.1 8,-0.9 11.4,-2.9 z"
   id="path83" />
	<path
   class="st1"
   d="m 1515.4,1136.9 c -1.6,-3.7 -4.1,-6.7 -7.4,-8.8 -3.3,-2.1 -7.2,-3.2 -11.7,-3.2 -4.2,0 -8,1 -11.4,2.9 -3.4,1.9 -6,4.7 -8,8.3 -1.9,3.6 -2.9,7.8 -2.9,12.5 0,4.8 1,9 2.9,12.6 1.9,3.6 4.6,6.4 8,8.4 3.4,1.9 7.1,2.9 11.4,2.9 3.9,0 7.5,-0.9 10.7,-2.6 3.2,-1.7 5.7,-4.1 7.6,-7.3 1.9,-3.2 3,-6.9 3.3,-11.1 H 1494 v -4.6 h 29.9 v 4.1 c -0.3,5 -1.6,9.5 -4.1,13.5 -2.4,4 -5.7,7.2 -9.8,9.5 -4.1,2.3 -8.7,3.5 -13.8,3.5 -5.2,0 -10,-1.2 -14.3,-3.7 -4.3,-2.5 -7.6,-5.9 -10.1,-10.3 -2.5,-4.4 -3.7,-9.4 -3.7,-15 0,-5.6 1.2,-10.6 3.7,-15 2.5,-4.4 5.8,-7.8 10.1,-10.3 4.3,-2.5 9,-3.7 14.3,-3.7 6.1,0 11.4,1.5 15.9,4.5 4.5,3 7.8,7.3 9.9,12.7 h -6.6 z"
   id="path85" />
	<path
   class="st1"
   d="m 1560.2,1120.3 v 56.7 h -5.7 v -56.7 z"
   id="path87" />
	<path
   class="st1"
   d="m 1599.1,1124.9 v 21.2 h 21.5 v 4.7 h -21.5 v 21.5 h 23.9 v 4.7 h -29.6 v -56.8 h 29.6 v 4.7 z"
   id="path89" />
	<path
   class="st1"
   d="m 1661.8,1175.7 c -2.8,-1.3 -5.1,-3.1 -6.7,-5.4 -1.6,-2.3 -2.5,-4.9 -2.6,-7.8 h 6 c 0.3,2.8 1.5,5.2 3.7,7.3 2.2,2.1 5.3,3.1 9.5,3.1 3.8,0 6.9,-1 9.1,-3 2.2,-2 3.4,-4.5 3.4,-7.5 0,-2.4 -0.6,-4.4 -1.9,-5.9 -1.2,-1.5 -2.8,-2.6 -4.6,-3.3 -1.8,-0.7 -4.4,-1.5 -7.6,-2.4 -3.8,-1 -6.8,-2 -9,-3 -2.2,-1 -4.1,-2.5 -5.7,-4.5 -1.6,-2.1 -2.4,-4.8 -2.4,-8.4 0,-2.9 0.8,-5.5 2.3,-7.8 1.5,-2.3 3.7,-4.1 6.4,-5.4 2.8,-1.3 5.9,-1.9 9.5,-1.9 5.2,0 9.5,1.3 12.7,3.9 3.2,2.6 5.1,5.9 5.6,9.9 h -6.2 c -0.4,-2.3 -1.7,-4.4 -3.8,-6.2 -2.2,-1.8 -5.1,-2.7 -8.8,-2.7 -3.4,0 -6.2,0.9 -8.5,2.7 -2.3,1.8 -3.4,4.3 -3.4,7.4 0,2.4 0.6,4.3 1.9,5.8 1.2,1.5 2.8,2.6 4.7,3.3 1.9,0.8 4.4,1.6 7.6,2.4 3.7,1 6.7,2 8.9,3 2.3,1 4.2,2.5 5.8,4.6 1.6,2.1 2.4,4.8 2.4,8.3 0,2.7 -0.7,5.2 -2.1,7.5 -1.4,2.4 -3.5,4.3 -6.2,5.8 -2.8,1.5 -6.1,2.2 -9.9,2.2 -3.9,-0.1 -7.2,-0.7 -10.1,-2 z"
   id="path91" />
</g>
</svg>
